<svg width="28" height="28" viewBox="0 0 28 28" fill="none" xmlns="http://www.w3.org/2000/svg">
<rect width="28" height="28" rx="5" fill="#5F6A7D"/>
<path fill-rule="evenodd" clip-rule="evenodd" d="M14 17C15.6567 17 17 15.6569 17 14C17 12.3431 15.6567 11 14 11C12.3433 11 11 12.3431 11 14C11 15.6569 12.3433 17 14 17ZM13 14C13 13.4477 13.4478 13 14 13C14.5522 13 15 13.4477 15 14C15 14.5523 14.5522 15 14 15C13.4478 15 13 14.5523 13 14Z" fill="white"/>
<path fill-rule="evenodd" clip-rule="evenodd" d="M10.3999 7.33331C10.6318 7.33331 10.8984 7.35919 11.1689 7.43085C11.6091 6.55804 12.5005 6 13.4946 6H14.3157C14.927 6 15.5789 6.22754 16.0771 6.72839C16.2908 6.94324 16.4568 7.18878 16.5747 7.45251C16.8113 7.37622 17.0681 7.33331 17.3474 7.33331C17.7617 7.33331 18.5479 7.41858 19.2075 8.0816L19.7373 8.61432C20.5703 9.38409 20.6438 10.3882 20.4255 11.173C21.5024 11.6138 22 12.7197 22 13.5873V14.381C22 15.3508 21.4526 16.295 20.5479 16.7337C20.8286 17.6011 20.6711 18.6161 19.9604 19.3515L19.4365 19.9091C19.4236 19.923 19.4104 19.9366 19.397 19.9501C18.7373 20.6132 17.9512 20.6984 17.5369 20.6984C17.2356 20.6984 16.9607 20.6486 16.709 20.5607C16.2703 21.4384 15.3762 22 14.3789 22H13.5894C12.6165 22 11.688 21.4522 11.249 20.5643C11.0002 20.6499 10.7288 20.6984 10.4316 20.6984C10.0173 20.6984 9.23096 20.6132 8.57153 19.9501L8.53174 19.9091L8.04614 19.3921C7.20215 18.5912 7.16455 17.5453 7.41577 16.7552C6.44849 16.2751 6 15.2365 6 14.4127V13.619C6 12.6411 6.55054 11.7442 7.42944 11.3246C7.14038 10.4628 7.28613 9.44995 7.98022 8.70947L8.45972 8.16724C8.4856 8.13794 8.51245 8.10938 8.54004 8.0816C9.19946 7.41858 9.98584 7.33331 10.3999 7.33331ZM9.3894 10.8254L10.0527 11.7778C9.86304 12.0952 9.73682 12.4762 9.6106 12.8571L8.47363 13.0793C8.18945 13.1111 8 13.3333 8 13.619V14.4127C8 14.6984 8.18945 14.9841 8.50537 15.0159L9.64209 15.2064C9.67188 15.2886 9.69995 15.3726 9.72803 15.4575C9.82007 15.7332 9.91528 16.0187 10.0842 16.2857L9.3894 17.2064C9.23169 17.4603 9.23169 17.7778 9.45264 17.9683L9.9895 18.5397C10.1157 18.6667 10.2737 18.6984 10.4316 18.6984C10.5579 18.6984 10.6526 18.6667 10.7791 18.5714L11.7263 17.873C12.042 18.0635 12.3894 18.1905 12.8 18.3174L12.9895 19.4921C13.021 19.7778 13.2737 20 13.5894 20H14.3789C14.6631 20 14.9158 19.8095 14.979 19.4921L15.1685 18.3174C15.5159 18.1905 15.863 18.0635 16.2422 17.873L17.1895 18.5714C17.3157 18.6667 17.4106 18.6984 17.5369 18.6984C17.6948 18.6984 17.8525 18.6667 17.979 18.5397L18.5159 17.9683C18.7053 17.7778 18.7368 17.4603 18.5789 17.2064L17.9158 16.254C18.1052 15.9365 18.2317 15.5555 18.3579 15.1746L19.4946 14.9841C19.7791 14.9524 20 14.6984 20 14.381V13.5873C20 13.3016 19.8105 13.0159 19.4946 12.9841L18.3579 12.7936C18.3281 12.7114 18.3 12.6274 18.272 12.5425C18.1799 12.2668 18.0847 11.9813 17.9158 11.7143L18.4211 10.8254C18.5789 10.5714 18.5789 10.254 18.3579 10.0635L17.7896 9.49207C17.6631 9.36505 17.5054 9.33331 17.3474 9.33331C17.2891 9.33331 17.2375 9.34003 17.1865 9.35657C17.127 9.37598 17.0681 9.40894 17 9.46033L16.0527 10.1588C15.7368 9.96826 15.3894 9.84125 14.979 9.71429L14.8513 8.92242L14.8469 8.89636L14.7896 8.53967C14.821 8.19049 14.5684 8 14.3157 8H13.4946C13.3518 8 13.2168 8.04816 13.1099 8.13641C13.0366 8.19696 12.9766 8.27637 12.9363 8.37207C12.9268 8.39471 12.9182 8.41821 12.9109 8.44263C12.9045 8.46375 12.8992 8.48553 12.8948 8.50793L12.8894 8.54688L12.8828 8.59735L12.8484 8.85278L12.8459 8.87073L12.7368 9.68256C12.4924 9.77179 12.248 9.86108 11.9929 9.97247C11.8853 10.0195 11.7756 10.0704 11.6631 10.127L10.7749 9.41882L10.7563 9.40393L10.7473 9.39685C10.6843 9.36505 10.5579 9.33331 10.3999 9.33331C10.2422 9.33331 10.0842 9.36505 9.95801 9.49207L9.45264 10.0635C9.26318 10.254 9.23169 10.5714 9.3894 10.8254Z" fill="white"/>
</svg>
