<svg width="24" height="24" viewBox="0 0 24 24" fill="none" xmlns="http://www.w3.org/2000/svg">
<path fill-rule="evenodd" clip-rule="evenodd" d="M7.00108 8.90611C7.05781 6.14455 9.34283 3.94826 12.1042 4.00094C14.8643 4.05359 17.0556 6.33349 16.9989 9.0939C16.9422 11.8555 14.6572 14.0518 11.8958 13.9991C9.13566 13.9464 6.94438 11.6665 7.00108 8.90611ZM12.1423 2.0013C8.27765 1.92757 5.08089 5.00039 5.00151 8.86503C4.94236 11.744 6.62982 14.2504 9.09191 15.3729C6.20458 16.1277 3.74135 17.9781 2.1569 20.4623C1.85991 20.9279 1.99662 21.5461 2.46225 21.8431C2.92788 22.1401 3.54611 22.0034 3.84311 21.5378C5.62676 18.7413 8.72142 16.934 12.1926 17.0019C15.5314 17.0671 18.4515 18.8518 20.1558 21.536C20.4518 22.0023 21.0698 22.1402 21.536 21.8442C22.0023 21.5482 22.1402 20.9302 21.8442 20.464C20.2674 17.9805 17.8074 16.1217 14.9022 15.3682C17.2724 14.2836 18.9414 11.914 18.9985 9.13498C19.0779 5.2692 16.0081 2.07505 12.1423 2.0013Z" fill="black" fill-opacity="0.9"/>
</svg>
