<svg width="28" height="28" viewBox="0 0 28 28" fill="none" xmlns="http://www.w3.org/2000/svg">
<rect width="28" height="28" rx="5" fill="#5F6A7D"/>
<path fill-rule="evenodd" clip-rule="evenodd" d="M8 7C7.44772 7 7 7.44772 7 8V12C7 12.5523 7.44772 13 8 13H12C12.5523 13 13 12.5523 13 12V8C13 7.44772 12.5523 7 12 7H8ZM9 11V9H11V11H9ZM16 7C15.4477 7 15 7.44772 15 8V12C15 12.5523 15.4477 13 16 13H20C20.5523 13 21 12.5523 21 12V8C21 7.44772 20.5523 7 20 7H16ZM17 11V9H19V11H17ZM7 16C7 15.4477 7.44772 15 8 15H12C12.5523 15 13 15.4477 13 16V20C13 20.5523 12.5523 21 12 21H8C7.44772 21 7 20.5523 7 20V16ZM9 17V19H11V17H9ZM19 16C19 15.4477 18.5523 15 18 15C17.4477 15 17 15.4477 17 16V17H16C15.4477 17 15 17.4477 15 18C15 18.5523 15.4477 19 16 19H17V20C17 20.5523 17.4477 21 18 21C18.5523 21 19 20.5523 19 20V19H20C20.5523 19 21 18.5523 21 18C21 17.4477 20.5523 17 20 17H19V16Z" fill="white"/>
</svg>
