<svg width="28" height="28" viewBox="0 0 28 28" fill="none" xmlns="http://www.w3.org/2000/svg">
<rect width="28" height="28" rx="5" fill="#7250A1"/>
<path d="M21 11V10C21 9.44772 20.5523 9 20 9H19M21 11H20C19.4477 11 19 10.5523 19 10V9M21 11V17M19 9H9M21 17V18C21 18.5523 20.5523 19 20 19H19M21 17H20C19.4477 17 19 17.4477 19 18V19M19 19H9M9 19H8C7.44772 19 7 18.5523 7 18V17M9 19V18C9 17.4477 8.55228 17 8 17H7M7 17V11M7 11V10C7 9.44772 7.44772 9 8 9H9M7 11H8C8.55228 11 9 10.5523 9 10V9M16 14C16 15.1046 15.1046 16 14 16C12.8954 16 12 15.1046 12 14C12 12.8954 12.8954 12 14 12C15.1046 12 16 12.8954 16 14Z" stroke="white" stroke-width="2" stroke-linecap="round" stroke-linejoin="round"/>
</svg>
