<svg width="28" height="28" viewBox="0 0 28 28" fill="none" xmlns="http://www.w3.org/2000/svg">
<rect width="28" height="28" rx="5" fill="#0BB634"/>
<g clip-path="url(#clip0)">
<path fill-rule="evenodd" clip-rule="evenodd" d="M14.5812 7.18627C14.2335 6.93791 13.7664 6.93791 13.4187 7.18627L6.41871 12.1863C6.06497 12.4389 5.91499 12.8912 6.04765 13.3052C6.18032 13.7192 6.56523 14 6.99995 14H8.99995V19H6.99995C6.44766 19 5.99995 19.4477 5.99995 20C5.99995 20.5523 6.44766 21 6.99995 21H9.99995H17.9999H20.9999C21.5522 21 21.9999 20.5523 21.9999 20C21.9999 19.4477 21.5522 19 20.9999 19H18.9999V14H20.9999C21.4347 14 21.8196 13.7192 21.9522 13.3052C22.0849 12.8912 21.9349 12.4389 21.5812 12.1863L14.5812 7.18627ZM16.9999 19V14H10.9999V19H16.9999ZM13.9999 9.2289L17.8795 12H10.1204L13.9999 9.2289Z" fill="white"/>
</g>
<defs>
<clipPath id="clip0">
<rect width="16" height="16" fill="white" transform="translate(6 6)"/>
</clipPath>
</defs>
</svg>
