<svg width="28" height="28" viewBox="0 0 28 28" fill="none" xmlns="http://www.w3.org/2000/svg">
<rect width="28" height="28" rx="5" fill="#A1499C"/>
<path fill-rule="evenodd" clip-rule="evenodd" d="M9 12C9 11.4477 9.44772 11 10 11C10.5523 11 11 11.4477 11 12C11 12.5523 10.5523 13 10 13C9.44772 13 9 12.5523 9 12ZM10 9C8.34315 9 7 10.3431 7 12C7 12.9911 7.48059 13.8699 8.22144 14.4162C6.90478 15.0709 6 16.4298 6 18C6 18.5523 6.44772 19 7 19C7.55228 19 8 18.5523 8 18C8 16.8954 8.89543 16 10 16C11.1046 16 12 16.8954 12 18C12 18.5523 12.4477 19 13 19C13.5523 19 14 18.5523 14 18C14 16.4298 13.0952 15.0709 11.7786 14.4162C12.5194 13.8699 13 12.9911 13 12C13 10.3431 11.6569 9 10 9ZM16 12C16 11.4477 16.4477 11 17 11H21C21.5523 11 22 11.4477 22 12C22 12.5523 21.5523 13 21 13H17C16.4477 13 16 12.5523 16 12ZM17 15C16.4477 15 16 15.4477 16 16C16 16.5523 16.4477 17 17 17H20C20.5523 17 21 16.5523 21 16C21 15.4477 20.5523 15 20 15H17Z" fill="white"/>
</svg>
