<svg width="28" height="28" viewBox="0 0 28 28" fill="none" xmlns="http://www.w3.org/2000/svg">
<rect width="28" height="28" rx="5" fill="#5F6A7D"/>
<path fill-rule="evenodd" clip-rule="evenodd" d="M6 8C6 6.89543 6.89543 6 8 6H20C21.1046 6 22 6.89543 22 8V16C22 17.1046 21.1046 18 20 18H17V20H18C18.5523 20 19 20.4477 19 21C19 21.5523 18.5523 22 18 22H16H12H10C9.44772 22 9 21.5523 9 21C9 20.4477 9.44772 20 10 20H11V18H8C6.89543 18 6 17.1046 6 16V8ZM13 20H15V18H13V20ZM20 16H16H12H8V8L20 8V16Z" fill="white"/>
</svg>
