<svg width="16" height="16" viewBox="0 0 16 16" fill="none" xmlns="http://www.w3.org/2000/svg">
<g clip-path="url(#clip0)">
<path fill-rule="evenodd" clip-rule="evenodd" d="M5 4C6.10457 4 7 3.10457 7 2C7 0.895431 6.10457 0 5 0C3.89543 0 3 0.895431 3 2C3 3.10457 3.89543 4 5 4ZM11 4C12.1046 4 13 3.10457 13 2C13 0.895431 12.1046 0 11 0C9.89543 0 9 0.895431 9 2C9 3.10457 9.89543 4 11 4ZM7 8C7 9.10457 6.10457 10 5 10C3.89543 10 3 9.10457 3 8C3 6.89543 3.89543 6 5 6C6.10457 6 7 6.89543 7 8ZM11 10C12.1046 10 13 9.10457 13 8C13 6.89543 12.1046 6 11 6C9.89543 6 9 6.89543 9 8C9 9.10457 9.89543 10 11 10ZM7 14C7 15.1046 6.10457 16 5 16C3.89543 16 3 15.1046 3 14C3 12.8954 3.89543 12 5 12C6.10457 12 7 12.8954 7 14ZM11 16C12.1046 16 13 15.1046 13 14C13 12.8954 12.1046 12 11 12C9.89543 12 9 12.8954 9 14C9 15.1046 9.89543 16 11 16Z" fill="#006AFF"/>
</g>
<defs>
<clipPath id="clip0">
<rect width="16" height="16" fill="white"/>
</clipPath>
</defs>
</svg>
