<svg width="28" height="28" viewBox="0 0 28 28" fill="none" xmlns="http://www.w3.org/2000/svg">
<rect width="28" height="28" rx="5" fill="#A1499C"/>
<path fill-rule="evenodd" clip-rule="evenodd" d="M8 11.75C8 11.4106 8.11802 11.0984 8.31855 10.8809C8.50465 10.679 8.81435 10.5 9.33333 10.5C10.1009 10.5 10.651 10.8385 11.2161 11.5358C11.6584 12.0816 12.0287 12.7375 12.4649 13.5101L12.5907 13.7327C11.6887 13.7033 10.7183 13.6234 9.87403 13.4063C9.22014 13.2382 8.73665 13.0098 8.43047 12.7373C8.15904 12.4957 8 12.2006 8 11.75ZM11.6437 15.6865C11.4291 15.9065 11.201 16.1114 10.9555 16.2986C10.0332 17.0019 8.80558 17.5 7 17.5C6.44772 17.5 6 17.9477 6 18.5C6 19.0523 6.44772 19.5 7 19.5C9.21825 19.5 10.8777 18.8731 12.1682 17.8889C12.903 17.3286 13.4974 16.6678 14 15.9861C14.5026 16.6678 15.097 17.3286 15.8318 17.8889C17.1223 18.8731 18.7818 19.5 21 19.5C21.5523 19.5 22 19.0523 22 18.5C22 17.9477 21.5523 17.5 21 17.5C19.1944 17.5 17.9668 17.0019 17.0445 16.2986C16.799 16.1114 16.5709 15.9065 16.3563 15.6865C17.1058 15.6321 17.8938 15.5311 18.624 15.3433C19.4285 15.1365 20.2575 14.8024 20.8992 14.2312C21.5757 13.6291 22 12.7993 22 11.75C22 10.9644 21.7292 10.1516 21.152 9.52537C20.5604 8.88352 19.7034 8.5 18.6667 8.5C17.1012 8.5 16.0324 9.28647 15.23 10.2767C14.7871 10.8233 14.3826 11.4915 14 12.1598C13.6174 11.4915 13.2129 10.8233 12.77 10.2767C11.9676 9.28647 10.8988 8.5 9.33333 8.5C8.29657 8.5 7.4396 8.88352 6.84797 9.52537C6.27078 10.1516 6 10.9644 6 11.75C6 12.7993 6.42429 13.6291 7.10078 14.2312C7.74252 14.8024 8.57153 15.1365 9.37597 15.3433C10.1062 15.5311 10.8942 15.6322 11.6437 15.6865ZM18.126 13.4063C17.2817 13.6234 16.3113 13.7033 15.4093 13.7327L15.5351 13.5101C15.9713 12.7375 16.3416 12.0816 16.7839 11.5358C17.349 10.8385 17.8991 10.5 18.6667 10.5C19.1857 10.5 19.4954 10.679 19.6815 10.8809C19.882 11.0984 20 11.4106 20 11.75C20 12.2006 19.841 12.4957 19.5695 12.7373C19.2634 13.0098 18.7799 13.2382 18.126 13.4063Z" fill="white"/>
</svg>
