<svg width="24" height="24" viewBox="0 0 24 24" fill="none" xmlns="http://www.w3.org/2000/svg">
<path fill-rule="evenodd" clip-rule="evenodd" d="M12 4.00006C7.58169 4.00006 3.99997 7.58178 3.99997 12.0001C3.99997 16.4183 7.58169 20.0001 12 20.0001C16.4182 20.0001 20 16.4183 20 12.0001C20 7.58178 16.4182 4.00006 12 4.00006ZM1.99997 12.0001C1.99997 6.47721 6.47712 2.00006 12 2.00006C17.5228 2.00006 22 6.47721 22 12.0001C22 17.5229 17.5228 22.0001 12 22.0001C6.47712 22.0001 1.99997 17.5229 1.99997 12.0001ZM13.0003 17.0001C13.0003 17.5523 12.5526 18.0001 12.0003 18.0001C11.4481 18.0001 11.0003 17.5523 11.0003 17.0001C11.0003 16.4478 11.4481 16.0001 12.0003 16.0001C12.5526 16.0001 13.0003 16.4478 13.0003 17.0001ZM10.5 10.5715C10.5 10.1342 10.6431 9.73346 10.8816 9.4575C11.1024 9.20199 11.448 9.00006 12 9.00006C12.552 9.00006 12.8976 9.20199 13.1184 9.4575C13.3568 9.73346 13.5 10.1342 13.5 10.5715C13.5 10.9375 13.3535 11.1012 12.707 11.5193C12.6757 11.5395 12.6421 11.5608 12.6065 11.5834C12.0471 11.9388 11 12.6039 11 14.0001C11 14.5523 11.4477 15.0001 12 15.0001C12.5523 15.0001 13 14.5523 13 14.0001C13 13.7708 13.0654 13.6692 13.793 13.1987L13.8161 13.1838C14.4241 12.7909 15.5 12.0956 15.5 10.5715C15.5 9.72304 15.2264 8.83809 14.6316 8.14977C14.0191 7.44099 13.1147 7.00006 12 7.00006C10.8853 7.00006 9.98089 7.44099 9.36836 8.14977C8.77351 8.83809 8.49997 9.72304 8.49997 10.5715C8.49997 11.1238 8.94768 11.5715 9.49997 11.5715C10.0523 11.5715 10.5 11.1238 10.5 10.5715Z" fill="black" fill-opacity="0.9"/>
</svg>
