<svg width="28" height="28" viewBox="0 0 28 28" fill="none" xmlns="http://www.w3.org/2000/svg">
<rect width="28" height="28" rx="5" fill="#5F6A7D"/>
<g clip-path="url(#clip0)">
<path fill-rule="evenodd" clip-rule="evenodd" d="M14.6508 6.24074C14.2763 5.91975 13.7237 5.91975 13.3492 6.24074L6.34923 12.2407C5.9299 12.6002 5.88134 13.2315 6.24076 13.6508C6.43844 13.8814 6.71836 13.9999 7.00002 14V21C7.00002 21.5523 7.44773 22 8.00002 22H12H16H20C20.5523 22 21 21.5523 21 21V14C21.2817 13.9999 21.5616 13.8814 21.7593 13.6508C22.1187 13.2315 22.0701 12.6002 21.6508 12.2407L20 10.8258V9C20 8.44772 19.5523 8 19 8C18.4477 8 18 8.44772 18 9V9.11149L14.6508 6.24074ZM15 16V20H13V16H15ZM17 15V20H19V12.6028L14 8.31708L9.00002 12.6028V20H11V15C11 14.4477 11.4477 14 12 14H16C16.5523 14 17 14.4477 17 15Z" fill="white"/>
</g>
<defs>
<clipPath id="clip0">
<rect width="16" height="16" fill="white" transform="translate(6 6)"/>
</clipPath>
</defs>
</svg>
