<svg width="28" height="28" viewBox="0 0 28 28" fill="none" xmlns="http://www.w3.org/2000/svg">
<rect width="28" height="28" rx="5" fill="#5174D1"/>
<path fill-rule="evenodd" clip-rule="evenodd" d="M15 7C15 6.44772 14.5523 6 14 6C13.4477 6 13 6.44772 13 7V7.11164C12.8055 7.1647 12.6053 7.23836 12.4112 7.33992C12.1084 7.49844 11.7963 7.73805 11.5616 8.09466C11.3225 8.45787 11.2 8.8877 11.2 9.36202C11.2 10.4275 12.0261 11.0073 12.5082 11.2618C13.0086 11.5259 13.5396 11.658 13.7259 11.7043L13.7555 11.7117C13.9079 11.7501 14.308 11.8581 14.6526 12.0428C14.8245 12.135 14.9311 12.2195 14.9847 12.2803C14.9907 12.287 14.9953 12.2926 14.9988 12.2972C14.9902 12.4129 14.9329 12.5294 14.7767 12.646C14.5914 12.7844 14.3064 12.8828 14 12.8828C13.459 12.8828 13.0702 12.5555 12.8056 12.1958C12.4783 11.7509 11.8524 11.6555 11.4075 11.9827C10.9626 12.3099 10.8672 12.9359 11.1944 13.3808C11.5201 13.8235 12.1119 14.4442 13 14.729V15C13 15.5523 13.4477 16 14 16C14.5523 16 15 15.5523 15 15V14.7346C15.3488 14.6289 15.6812 14.4667 15.9733 14.2486C16.5525 13.8162 17 13.1345 17 12.2648C17 11.1579 16.0916 10.5449 15.5974 10.2801C15.0253 9.97339 14.4254 9.81801 14.2445 9.77239L14.2312 9.76904C14.0475 9.72277 13.7214 9.64061 13.4418 9.49304C13.3089 9.42292 13.2349 9.36215 13.2009 9.32489C13.2057 9.23434 13.2274 9.20156 13.232 9.19462L13.2321 9.19433C13.2411 9.18066 13.2666 9.14962 13.3388 9.11184C13.5083 9.02307 13.7723 8.982 14 8.982C14.1582 8.982 14.3935 9.02337 14.6243 9.11694C14.8618 9.21321 15.0002 9.32582 15.0554 9.39815C15.3908 9.83697 16.0183 9.92088 16.4572 9.58554C16.896 9.25021 16.9799 8.62263 16.6446 8.1838C16.2998 7.73267 15.8132 7.4408 15.3757 7.26344C15.2533 7.21381 15.1274 7.17017 15 7.13297V7ZM7 18C7 17.4477 7.44772 17 8 17H20C20.5523 17 21 17.4477 21 18C21 18.5523 20.5523 19 20 19H8C7.44772 19 7 18.5523 7 18ZM7 21C7 20.4477 7.44772 20 8 20H20C20.5523 20 21 20.4477 21 21C21 21.5523 20.5523 22 20 22H8C7.44772 22 7 21.5523 7 21Z" fill="white"/>
</svg>
