<svg width="28" height="28" viewBox="0 0 28 28" fill="none" xmlns="http://www.w3.org/2000/svg">
<rect width="28" height="28" rx="5" fill="#5174D1"/>
<path fill-rule="evenodd" clip-rule="evenodd" d="M15 6C14.1317 5.99999 13.0842 6.24052 12.2615 7.08981C11.7899 7.57666 11.4432 8.21101 11.2339 9H11C10.4477 9 10 9.44772 10 10C10 10.5523 10.4477 11 11 11C11 11.1711 11.0034 11.3377 11.0103 11.5H11.0099H11.0092H11.0085H11.0078H11.0072H11.0066H11.006H11.0054H11.0049H11.0044H11.0039H11.0035H11.0031H11.0027H11.0023H11.002H11.0017H11.0014H11.0011H11.0009H11.0007H11.0005H11.0003H11.0002H11.0001H11.0001H11L11 12.5V11.5C10.4477 11.5 10 11.9477 10 12.5C10 13.0523 10.4477 13.5 11 13.5V12.5L11 13.5H11.0001H11.0001H11.0002H11.0003H11.0005H11.0007H11.0009H11.0011H11.0014H11.0017H11.002H11.0023H11.0027H11.0031H11.0035H11.0039H11.0044H11.0049H11.0054H11.006H11.0066H11.0072H11.0078H11.0085H11.0092H11.0099H11.0106H11.0114H11.0122H11.013H11.0139H11.0148H11.0157H11.0166H11.0176H11.0185H11.0195H11.0206H11.0216H11.0227H11.0238H11.025H11.0262H11.0274H11.0286H11.0298H11.0311H11.0324H11.0337H11.0351H11.0364H11.0378H11.0393H11.0407H11.0422H11.0437H11.0452H11.0468H11.0484H11.05H11.0516H11.0533H11.055H11.0567H11.0584H11.0602H11.062H11.0638H11.0656H11.0675H11.0694H11.0713H11.0733H11.0752H11.0772H11.0792H11.0813H11.0834H11.0855H11.0876H11.0897H11.0919H11.0941H11.0963H11.0986H11.1008H11.1031H11.1054H11.1078H11.1102H11.1126H11.115H11.1174H11.1199H11.1224H11.1249H11.1275H11.13H11.1326H11.1353H11.1379H11.1406H11.1433H11.146H11.1487H11.1515H11.1543H11.1571H11.16H11.1628H11.1657H11.1686H11.1716H11.1745H11.1775H11.1805H11.1836H11.1866H11.1897H11.1928H11.196H11.1991H11.2023H11.2055H11.2087H11.212H11.2153H11.2186H11.2219H11.2253H11.2286H11.232H11.2355H11.2389H11.2424H11.2459H11.2494H11.2529H11.2565H11.2601H11.2637H11.2673H11.271H11.2747H11.2784H11.2821H11.2859H11.2897H11.2935H11.2973H11.3011H11.305H11.3089H11.3128H11.3168H11.3207H11.3247H11.3287H11.3328H11.3368H11.3409H11.3426C11.5389 14.0873 11.8217 14.5742 12.1965 14.9633C13.0288 15.8275 14.1116 16 15 16C16.0124 16 16.7353 15.6677 17.2165 15.274C17.4498 15.0831 17.614 14.8881 17.724 14.7318C17.7791 14.6535 17.8212 14.5842 17.852 14.5287C17.8674 14.5009 17.8801 14.4764 17.8904 14.4559C17.8955 14.4456 17.8999 14.4362 17.9038 14.428L17.9092 14.4163L17.9116 14.411L17.9127 14.4086L17.9133 14.4074C17.9135 14.4068 17.9138 14.4062 17 14L17.9138 14.4062C18.1381 13.9015 17.9109 13.3106 17.4062 13.0862C16.9126 12.8668 16.3363 13.0794 16.1014 13.5611C16.099 13.5651 16.0948 13.5718 16.0885 13.5807C16.0665 13.6119 16.0224 13.6669 15.9501 13.726C15.8202 13.8323 15.5431 14 15 14C14.3329 14 13.9157 13.8653 13.6369 13.5759C13.6147 13.5528 13.5923 13.5276 13.5697 13.5H13.5789H13.5889H13.5989H13.6089H13.6189H13.629H13.639H13.6491H13.6592H13.6693H13.6794H13.6895H13.6997H13.7098H13.72H13.7302H13.7404H13.7506H13.7608H13.7711H13.7813H13.7916H13.8019H13.8122H13.8225H13.8328H13.8432H13.8535H13.8639H13.8743H13.8847H13.8951H13.9055H13.916H13.9264H13.9369H13.9474H13.9579H13.9684H13.9789H13.9894H14C14.5523 13.5 15 13.0523 15 12.5C15 11.9477 14.5523 11.5 14 11.5H13.9894H13.9789H13.9684H13.9579H13.9474H13.9369H13.9264H13.916H13.9055H13.8951H13.8847H13.8743H13.8639H13.8535H13.8432H13.8328H13.8225H13.8122H13.8019H13.7916H13.7813H13.7711H13.7608H13.7506H13.7404H13.7302H13.72H13.7098H13.6997H13.6895H13.6794H13.6693H13.6592H13.6491H13.639H13.629H13.6189H13.6089H13.5989H13.5889H13.5789H13.569H13.559H13.5491H13.5392H13.5293H13.5194H13.5095H13.4996H13.4898H13.48H13.4702H13.4604H13.4506H13.4408H13.4311H13.4213H13.4116H13.4019H13.3922H13.3825H13.3729H13.3632H13.3536H13.344H13.3344H13.3248H13.3152H13.3057H13.2962H13.2866H13.2771H13.2676H13.2582H13.2487H13.2393H13.2299H13.2204H13.2111H13.2017H13.1923H13.183H13.1736H13.1643H13.155H13.1458H13.1365H13.1272H13.118H13.1088H13.0996H13.0904H13.0812H13.0721H13.063H13.0538H13.0447H13.0357H13.0266H13.0175H13.0124C13.0043 11.3441 13 11.1777 13 11H14C14.5523 11 15 10.5523 15 10C15 9.44772 14.5523 9 14 9H13.3504C13.4585 8.7702 13.5801 8.60307 13.698 8.48138C14.0284 8.14027 14.4809 8 15 8C15.4351 8 15.7267 8.15194 15.9124 8.29406C16.0086 8.36769 16.0772 8.43992 16.1184 8.48869C16.1386 8.51273 16.1513 8.52988 16.1563 8.53692L16.1572 8.53826C16.4497 8.99664 17.0568 9.13796 17.5224 8.8527C17.9933 8.56417 18.1412 7.94852 17.8527 7.47759L17 8.00001C17.8527 7.47759 17.8524 7.47717 17.8522 7.47674L17.8516 7.47586L17.8505 7.47403L17.8481 7.47009L17.8424 7.46105L17.8278 7.43857C17.8167 7.42168 17.8027 7.40103 17.7857 7.37716C17.7518 7.32951 17.7057 7.26853 17.6468 7.19882C17.5298 7.0601 17.3585 6.88232 17.1281 6.70596C16.6606 6.34807 15.9522 6.00001 15 6ZM7 18C7 17.4477 7.44772 17 8 17H20C20.5523 17 21 17.4477 21 18C21 18.5523 20.5523 19 20 19H8C7.44772 19 7 18.5523 7 18ZM7 21C7 20.4477 7.44772 20 8 20H20C20.5523 20 21 20.4477 21 21C21 21.5523 20.5523 22 20 22H8C7.44772 22 7 21.5523 7 21Z" fill="white"/>
</svg>
