<svg width="28" height="28" viewBox="0 0 28 28" fill="none" xmlns="http://www.w3.org/2000/svg">
<rect width="28" height="28" rx="5" fill="#5174D1"/>
<path fill-rule="evenodd" clip-rule="evenodd" d="M12.2081 6.37364C11.8621 5.94313 11.2327 5.87458 10.8022 6.22053C10.3716 6.56647 10.3031 7.19592 10.649 7.62643L11.9135 9.20004H11C10.4477 9.20004 10 9.64775 10 10.2C10 10.7523 10.4477 11.2 11 11.2H13V11.6667H11C10.4477 11.6667 10 12.1144 10 12.6667C10 13.219 10.4477 13.6667 11 13.6667H13V15C13 15.5523 13.4477 16 14 16C14.5523 16 15 15.5523 15 15V13.6667H17C17.5523 13.6667 18 13.219 18 12.6667C18 12.1144 17.5523 11.6667 17 11.6667H15V11.2H17C17.5523 11.2 18 10.7523 18 10.2C18 9.64775 17.5523 9.20004 17 9.20004H16.0864L17.3509 7.62643C17.6969 7.19592 17.6283 6.56647 17.1978 6.22053C16.7673 5.87458 16.1378 5.94313 15.7919 6.37364L14 8.60359L12.2081 6.37364ZM7 18C7 17.4478 7.44772 17 8 17H20C20.5523 17 21 17.4478 21 18C21 18.5523 20.5523 19 20 19H8C7.44772 19 7 18.5523 7 18ZM7 21C7 20.4478 7.44772 20 8 20H20C20.5523 20 21 20.4478 21 21C21 21.5523 20.5523 22 20 22H8C7.44772 22 7 21.5523 7 21Z" fill="white"/>
</svg>
