<svg width="28" height="28" viewBox="0 0 28 28" fill="none" xmlns="http://www.w3.org/2000/svg">
<rect width="28" height="28" rx="5" fill="#5174D1"/>
<path fill-rule="evenodd" clip-rule="evenodd" d="M14.7021 6C14.078 6 13.2588 6.19113 12.5689 6.68922C11.8365 7.21797 11.2766 8.08039 11.2766 9.28571C11.2766 9.5441 11.2956 9.78123 11.3283 10H11C10.4477 10 10 10.4477 10 11C10 11.5523 10.4477 12 11 12H12.0643C12.2159 12.3273 12.2979 12.5818 12.2979 12.9429L12.2979 12.9429C12.2979 12.9444 12.298 12.9573 12.2845 12.988C12.2692 13.0225 12.2381 13.0754 12.179 13.1445C12.0557 13.2887 11.8622 13.4436 11.621 13.5936C11.3862 13.7396 11.1442 13.8575 10.9568 13.9398C10.8645 13.9804 10.7886 14.0109 10.7376 14.0306C10.7122 14.0405 10.6933 14.0475 10.6818 14.0517L10.6708 14.0557L10.6704 14.0559L10.6698 14.0561L10.6704 14.0559L10.6708 14.0557C10.2102 14.2163 9.93267 14.6858 10.014 15.1667C10.0954 15.6478 10.5121 16 11 16H17C17.5523 16 18 15.5523 18 15C18 14.4477 17.5523 14 17 14H14.0116C14.1785 13.703 14.2979 13.3487 14.2979 12.9429C14.2979 12.5907 14.253 12.2786 14.1841 12H15.4681C16.0204 12 16.4681 11.5523 16.4681 11C16.4681 10.4477 16.0204 10 15.4681 10H13.369C13.3104 9.79033 13.2766 9.56273 13.2766 9.28571C13.2766 8.77675 13.4826 8.49632 13.7396 8.31078C14.0391 8.09458 14.4326 8 14.7021 8C15.2681 8 15.7283 8.18247 16.1801 8.82958C16.4962 9.28243 17.1196 9.39324 17.5724 9.07709C18.0253 8.76094 18.1361 8.13755 17.8199 7.68471C16.9951 6.50325 15.9234 6 14.7021 6ZM10.6708 14.0557C10.6709 14.0557 10.6711 14.0556 10.6712 14.0556L11 15C10.6712 14.0556 10.671 14.0557 10.6708 14.0557ZM7 18C7 17.4477 7.44772 17 8 17H20C20.5523 17 21 17.4477 21 18C21 18.5523 20.5523 19 20 19H8C7.44772 19 7 18.5523 7 18ZM7 21C7 20.4477 7.44772 20 8 20H20C20.5523 20 21 20.4477 21 21C21 21.5523 20.5523 22 20 22H8C7.44772 22 7 21.5523 7 21Z" fill="white"/>
</svg>
