<svg width="28" height="28" viewBox="0 0 28 28" fill="none" xmlns="http://www.w3.org/2000/svg">
<rect width="28" height="28" rx="5" fill="#00C1AE"/>
<g clip-path="url(#clip0)">
<path fill-rule="evenodd" clip-rule="evenodd" d="M13.2929 6.29289C13.4804 6.10536 13.7348 6 14 6H20C21.1046 6 22 6.89543 22 8V14C22 14.2652 21.8946 14.5196 21.7071 14.7071L14.7071 21.7071C14.3166 22.0976 13.6834 22.0976 13.2929 21.7071L6.29289 14.7071C5.90237 14.3166 5.90237 13.6834 6.29289 13.2929L13.2929 6.29289ZM14.4142 8L8.41421 14L14 19.5858L20 13.5858V8H14.4142ZM18 11C18 11.5523 17.5523 12 17 12C16.4477 12 16 11.5523 16 11C16 10.4477 16.4477 10 17 10C17.5523 10 18 10.4477 18 11ZM12.7071 13.2929C12.3166 12.9024 11.6834 12.9024 11.2929 13.2929C10.9024 13.6834 10.9024 14.3166 11.2929 14.7071L13.2929 16.7071C13.6834 17.0976 14.3166 17.0976 14.7071 16.7071C15.0976 16.3166 15.0976 15.6834 14.7071 15.2929L12.7071 13.2929Z" fill="white"/>
</g>
<defs>
<clipPath id="clip0">
<rect width="16" height="16" fill="white" transform="translate(6 6)"/>
</clipPath>
</defs>
</svg>
