<svg width="28" height="28" viewBox="0 0 28 28" fill="none" xmlns="http://www.w3.org/2000/svg">
<rect width="28" height="28" rx="5" fill="#A1499C"/>
<path fill-rule="evenodd" clip-rule="evenodd" d="M14 8C13.8676 8 13.7363 8.00428 13.6062 8.01268C13.0551 8.0483 12.5794 7.63038 12.5438 7.07925C12.5082 6.52811 12.9261 6.05246 13.4773 6.01684C13.6502 6.00567 13.8245 6 14 6C18.4183 6 22 9.58172 22 14C22 18.4183 18.4183 22 14 22C9.58172 22 6 18.4183 6 14C6 13.8245 6.00567 13.6502 6.01684 13.4773C6.05246 12.9261 6.52811 12.5082 7.07925 12.5438C7.63038 12.5794 8.04829 13.0551 8.01268 13.6062C8.00428 13.7363 8 13.8676 8 14C8 17.3137 10.6863 20 14 20C17.3137 20 20 17.3137 20 14C20 10.6863 17.3137 8 14 8ZM14.4124 10.6018L15.3102 11.9117C15.3752 12.0066 15.4709 12.0761 15.5812 12.1086L17.1044 12.5576C17.4414 12.657 17.5736 13.0637 17.3593 13.3421L16.391 14.6007C16.3208 14.6919 16.2843 14.8044 16.2874 14.9194L16.3311 16.5068C16.3407 16.858 15.9948 17.1093 15.6637 16.9916L14.1675 16.4596C14.0592 16.421 13.9408 16.421 13.8325 16.4596L12.3363 16.9916C12.0052 17.1093 11.6593 16.858 11.6689 16.5068L11.7126 14.9194C11.7157 14.8044 11.6792 14.6919 11.609 14.6007L10.6407 13.3421C10.4264 13.0637 10.5586 12.657 10.8956 12.5576L12.4188 12.1086C12.5291 12.0761 12.6248 12.0066 12.6898 11.9117L13.5876 10.6018C13.7862 10.312 14.2138 10.312 14.4124 10.6018ZM11.3463 8.61702C11.8414 8.37238 12.0445 7.77266 11.7998 7.27752C11.5552 6.78237 10.9555 6.5793 10.4603 6.82394C10.146 6.97924 9.84348 7.15452 9.55437 7.34807C9.09544 7.65532 8.97247 8.27643 9.27972 8.73536C9.58697 9.19429 10.2081 9.31726 10.667 9.01001C10.884 8.86477 11.1108 8.73336 11.3463 8.61702ZM9.01001 10.667C9.31726 10.2081 9.19429 9.58697 8.73536 9.27972C8.27643 8.97248 7.65532 9.09544 7.34807 9.55437C7.15452 9.84348 6.97924 10.146 6.82394 10.4603C6.5793 10.9555 6.78237 11.5552 7.27752 11.7998C7.77266 12.0445 8.37238 11.8414 8.61702 11.3463C8.73336 11.1108 8.86476 10.884 9.01001 10.667Z" fill="white"/>
</svg>
