<svg width="28" height="28" viewBox="0 0 28 28" fill="none" xmlns="http://www.w3.org/2000/svg">
<rect width="28" height="28" rx="5" fill="#F86932"/>
<g clip-path="url(#clip0)">
<path fill-rule="evenodd" clip-rule="evenodd" d="M16 7C16 6.65342 15.8205 6.33156 15.5257 6.14935C15.2309 5.96714 14.8628 5.95058 14.5528 6.10557L8.57214 9.09589C8.51613 9.12244 8.46298 9.15404 8.41329 9.1901C8.14914 9.38125 7.99544 9.68984 7.99998 10.0137V21C7.99998 21.5523 8.44769 22 8.99998 22H19C19.5523 22 20 21.5523 20 21V10C20 9.44772 19.5523 9 19 9H16V7ZM14 9V8.61804L13.236 9H14ZM9.99998 11V20H18V11H15H9.99998ZM14 15C14.5523 15 15 14.5523 15 14C15 13.4477 14.5523 13 14 13C13.4477 13 13 13.4477 13 14C13 14.5523 13.4477 15 14 15ZM13 16C12.4477 16 12 16.4477 12 17C12 17.5523 12.4477 18 13 18H15C15.5523 18 16 17.5523 16 17C16 16.4477 15.5523 16 15 16H13Z" fill="white"/>
</g>
<defs>
<clipPath id="clip0">
<rect width="16" height="16" fill="white" transform="translate(6 6)"/>
</clipPath>
</defs>
</svg>
