<svg width="24" height="24" viewBox="0 0 24 24" fill="none" xmlns="http://www.w3.org/2000/svg">
<path fill-rule="evenodd" clip-rule="evenodd" d="M7.00289 8.66772L7.00009 8.61893C7.01631 6.12087 9.19113 4 12 4C14.8089 4 16.9837 6.12087 16.9999 8.61894L16.9971 8.66772C16.9942 8.71957 16.9903 8.79409 16.9859 8.88663C16.9772 9.07147 16.9667 9.32949 16.9597 9.62331C16.946 10.1994 16.9444 10.9559 17.0048 11.5687C17.1771 13.3164 17.9943 15.3318 18.713 16.8384C18.9148 17.2615 19.1134 17.6536 19.2953 18H12H4.70465C4.88658 17.6536 5.08518 17.2615 5.28697 16.8384C6.00567 15.3318 6.82289 13.3164 6.99518 11.5687C7.05558 10.9559 7.05401 10.1994 7.04031 9.62331C7.03332 9.32949 7.02284 9.07147 7.01411 8.88663C7.00973 8.79409 7.00578 8.71957 7.00289 8.66772ZM14 20H21C21.3618 20 21.6953 19.8046 21.8722 19.4891C22.0491 19.1736 22.0419 18.7872 21.8533 18.4785L21.8532 18.4784L21.8523 18.4769L21.8476 18.4693L21.8274 18.4356C21.8091 18.4052 21.7817 18.3591 21.7463 18.2987C21.6754 18.1779 21.5728 18.0002 21.4482 17.7766C21.1986 17.3286 20.8627 16.6997 20.5182 15.9774C19.8139 14.501 19.1311 12.7517 18.9952 11.3725C18.9473 10.8873 18.9458 10.232 18.9591 9.67088C18.9657 9.39606 18.9755 9.15407 18.9837 8.98104C18.9877 8.89465 18.9914 8.82578 18.994 8.77898L18.9971 8.72598L18.9978 8.71302L18.998 8.71011L18.998 8.70966L18.998 8.70957C18.9993 8.68876 19 8.66791 19 8.64706C19 4.91974 15.808 2 12 2C8.19199 2 5 4.91974 5 8.64706C5 8.66791 5.00065 8.68877 5.00196 8.70958L5.00196 8.70966L5.00199 8.71011L5.00217 8.71302L5.00295 8.72598L5.00599 8.77898C5.0086 8.82578 5.01225 8.89465 5.01634 8.98104C5.02451 9.15407 5.03433 9.39606 5.04087 9.67088C5.05422 10.232 5.05266 10.8873 5.00482 11.3725C4.86885 12.7517 4.18607 14.501 3.48183 15.9774C3.13726 16.6997 2.80141 17.3286 2.55183 17.7766C2.42722 18.0002 2.32459 18.1779 2.25373 18.2987C2.21832 18.3591 2.19088 18.4052 2.17264 18.4356L2.15236 18.4693L2.14769 18.4769L2.14683 18.4784L2.14679 18.4784L2.14678 18.4784L2.14673 18.4785L2.14671 18.4786C1.95812 18.7872 1.95086 19.1736 2.12775 19.4891C2.30468 19.8046 2.63823 20 3 20H10C10 21.1046 10.8954 22 12 22C13.1046 22 14 21.1046 14 20Z" fill="black" fill-opacity="0.9"/>
</svg>
