<svg width="28" height="28" viewBox="0 0 28 28" fill="none" xmlns="http://www.w3.org/2000/svg">
<rect width="28" height="28" rx="5" fill="#0073FF"/>
<path fill-rule="evenodd" clip-rule="evenodd" d="M7.77778 6C7.3172 6 6.85567 6.15789 6.50678 6.50678C6.15789 6.85567 6 7.3172 6 7.77778V20.2222C6 20.6828 6.15789 21.1443 6.50678 21.4932C6.85567 21.8421 7.3172 22 7.77778 22H11H17H20.2222C20.6828 22 21.1443 21.8421 21.4932 21.4932C21.8421 21.1443 22 20.6828 22 20.2222V7.77778C22 7.3172 21.8421 6.85567 21.4932 6.50678C21.1443 6.15789 20.6828 6 20.2222 6H7.77778ZM18 20H20V12H8V20H10V15C10 14.4477 10.4477 14 11 14H17C17.5523 14 18 14.4477 18 15V20ZM12 20H16V16H12V20ZM8 10V8H20V10H8Z" fill="white"/>
</svg>
