<svg width="28" height="28" viewBox="0 0 28 28" fill="none" xmlns="http://www.w3.org/2000/svg">
<rect width="28" height="28" rx="5" fill="#00C1AE"/>
<g clip-path="url(#clip0)">
<path fill-rule="evenodd" clip-rule="evenodd" d="M12 10C12 8.89543 12.8954 8 14 8C15.1046 8 16 8.89543 16 10H12ZM10 10C10 7.79086 11.7909 6 14 6C16.2091 6 18 7.79086 18 10H20C20.5523 10 21 10.4477 21 11V16.8769L21.9702 20.7575C22.0448 21.0562 21.9777 21.3727 21.7882 21.6154C21.5987 21.8581 21.3079 22 21 22H7.00001C6.69207 22 6.40131 21.8581 6.2118 21.6154C6.0223 21.3727 5.95518 21.0562 6.02987 20.7575L7.00001 16.8769V11C7.00001 10.4477 7.44772 10 8.00001 10H10ZM9.00001 17V12H19V17C19 17.0818 19.01 17.1632 19.0299 17.2425L19.7192 20H8.28079L8.97015 17.2425C8.98998 17.1632 9.00001 17.0818 9.00001 17ZM13 17C13 17.5523 12.5523 18 12 18C11.4477 18 11 17.5523 11 17C11 16.4477 11.4477 16 12 16C12.5523 16 13 16.4477 13 17ZM16 18C16.5523 18 17 17.5523 17 17C17 16.4477 16.5523 16 16 16C15.4477 16 15 16.4477 15 17C15 17.5523 15.4477 18 16 18Z" fill="white"/>
</g>
<defs>
<clipPath id="clip0">
<rect width="16" height="16" fill="white" transform="translate(6 6)"/>
</clipPath>
</defs>
</svg>
