<svg width="28" height="28" viewBox="0 0 28 28" fill="none" xmlns="http://www.w3.org/2000/svg">
<rect width="28" height="28" rx="5" fill="#5F6A7D"/>
<path fill-rule="evenodd" clip-rule="evenodd" d="M8 7C7.44772 7 7 7.44772 7 8V12C7 12.5523 7.44772 13 8 13H12C12.5523 13 13 12.5523 13 12V8C13 7.44772 12.5523 7 12 7H8ZM9 11V9H11V11H9ZM16 7C15.4477 7 15 7.44772 15 8V12C15 12.5523 15.4477 13 16 13H20C20.5523 13 21 12.5523 21 12V8C21 7.44772 20.5523 7 20 7H16ZM17 11V9H19V11H17ZM7 16C7 15.4477 7.44772 15 8 15H12C12.5523 15 13 15.4477 13 16V20C13 20.5523 12.5523 21 12 21H8C7.44772 21 7 20.5523 7 20V16ZM9 17V19H11V17H9ZM16 15C15.4477 15 15 15.4477 15 16V20C15 20.5523 15.4477 21 16 21H20C20.5523 21 21 20.5523 21 20V16C21 15.4477 20.5523 15 20 15H16ZM17 19V17H19V19H17Z" fill="white"/>
</svg>
