<svg width="28" height="28" viewBox="0 0 28 28" fill="none" xmlns="http://www.w3.org/2000/svg">
<rect width="28" height="28" rx="5" fill="#49A4D5"/>
<path fill-rule="evenodd" clip-rule="evenodd" d="M12 12C12 10.8954 12.8955 10 14 10C15.1046 10 16 10.8954 16 12C16 13.1046 15.1046 14 14 14C12.8955 14 12 13.1046 12 12ZM14 8C11.7909 8 10 9.79086 10 12C10 13.4274 10.7478 14.6802 11.8729 15.3881C10.5733 15.8811 9.49004 16.8123 8.80338 17.9993C8.52684 18.4773 8.6902 19.0891 9.16826 19.3656C9.64632 19.6421 10.2581 19.4788 10.5346 19.0007C11.2277 17.8025 12.5208 17 14.0001 17C15.4794 17 16.7724 17.8025 17.4656 19.0007C17.7421 19.4788 18.3538 19.6421 18.8319 19.3656C19.31 19.0891 19.4733 18.4773 19.1968 17.9993C18.5101 16.8122 17.4268 15.8811 16.1272 15.3881C17.2523 14.6802 18 13.4274 18 12C18 9.79086 16.2092 8 14 8Z" fill="white"/>
</svg>
