<svg width="28" height="28" viewBox="0 0 28 28" fill="none" xmlns="http://www.w3.org/2000/svg">
<rect width="28" height="28" rx="5" fill="#49A4D5"/>
<path fill-rule="evenodd" clip-rule="evenodd" d="M12.5 6C11.9477 6 11.5 6.44772 11.5 7C11.5 7.55228 11.9477 8 12.5 8H13V9C13 9.02557 13.001 9.05092 13.0028 9.07601C9.88636 9.55581 7.5 12.2492 7.5 15.5C7.5 19.0899 10.4101 22 14 22C17.5899 22 20.5 19.0899 20.5 15.5C20.5 13.9379 19.949 12.5045 19.0307 11.3836L19.7071 10.7071C20.0976 10.3166 20.0976 9.68342 19.7071 9.29289C19.3166 8.90237 18.6834 8.90237 18.2929 9.29289L17.5389 10.0469C16.7851 9.55673 15.9234 9.21861 14.9972 9.07601C14.999 9.05092 15 9.02557 15 9V8H15.5C16.0523 8 16.5 7.55228 16.5 7C16.5 6.44772 16.0523 6 15.5 6H14H12.5ZM9.5 15.5C9.5 13.0147 11.5147 11 14 11C16.4853 11 18.5 13.0147 18.5 15.5C18.5 17.9853 16.4853 20 14 20C11.5147 20 9.5 17.9853 9.5 15.5ZM15 14C15 13.4477 14.5523 13 14 13C13.4477 13 13 13.4477 13 14V15.5C13 15.8788 13.214 16.225 13.5528 16.3944L14.5528 16.8944C15.0468 17.1414 15.6474 16.9412 15.8944 16.4472C16.1414 15.9532 15.9412 15.3526 15.4472 15.1056L15 14.882V14Z" fill="white"/>
</svg>
