<svg width="28" height="28" viewBox="0 0 28 28" fill="none" xmlns="http://www.w3.org/2000/svg">
<rect width="28" height="28" rx="5" fill="#7250A1"/>
<g clip-path="url(#clip0)">
<path fill-rule="evenodd" clip-rule="evenodd" d="M16.2929 12.2929C15.9024 12.6834 15.9024 13.3166 16.2929 13.7071C16.6834 14.0976 17.3166 14.0976 17.7071 13.7071L20.6978 10.7163C20.8842 10.5346 21 10.2808 21 10C21 9.71916 20.8842 9.46536 20.6978 9.28372L17.7071 6.29291C17.3166 5.90238 16.6834 5.90236 16.2929 6.29288C15.9024 6.6834 15.9024 7.31656 16.2929 7.70709L17.5857 9H8C7.44772 9 7 9.44772 7 10C7 10.5523 7.44772 11 8 11H17.5857L16.2929 12.2929ZM11.7071 20.2929C12.0976 20.6834 12.0976 21.3166 11.7071 21.7071C11.3166 22.0976 10.6834 22.0976 10.2929 21.7071L7.30223 18.7163C7.11579 18.5347 7 18.2809 7 18C7 17.7191 7.11578 17.4653 7.30221 17.2837L10.2929 14.2929C10.6834 13.9024 11.3166 13.9024 11.7071 14.2929C12.0976 14.6834 12.0976 15.3166 11.7071 15.7071L10.4143 17H20C20.5523 17 21 17.4477 21 18C21 18.5523 20.5523 19 20 19H10.4143L11.7071 20.2929Z" fill="white"/>
</g>
<defs>
<clipPath id="clip0">
<rect width="16" height="16" fill="white" transform="translate(6 6)"/>
</clipPath>
</defs>
</svg>
