<svg width="28" height="28" viewBox="0 0 28 28" fill="none" xmlns="http://www.w3.org/2000/svg">
<rect width="28" height="28" rx="5" fill="#5174D1"/>
<path fill-rule="evenodd" clip-rule="evenodd" d="M7.77778 6C7.3172 6 6.85567 6.15789 6.50678 6.50678C6.15789 6.85567 6 7.3172 6 7.77778V20.2222C6 20.6828 6.15789 21.1443 6.50678 21.4932C6.85567 21.8421 7.3172 22 7.77778 22H20.2222C20.6828 22 21.1443 21.8421 21.4932 21.4932C21.8421 21.1443 22 20.6828 22 20.2222V7.77778C22 7.3172 21.8421 6.85567 21.4932 6.50678C21.1443 6.15789 20.6828 6 20.2222 6H7.77778ZM8 20V8H20V20H8ZM14.7021 9C14.078 9 13.2588 9.19113 12.5689 9.68922C11.8365 10.218 11.2766 11.0804 11.2766 12.2857C11.2766 12.5441 11.2956 12.7812 11.3283 13H11C10.4477 13 10 13.4477 10 14C10 14.5523 10.4477 15 11 15H12.0643C12.2159 15.3273 12.2979 15.5818 12.2979 15.9429L12.2979 15.9429C12.2979 15.9444 12.298 15.9573 12.2845 15.988C12.2692 16.0225 12.2381 16.0754 12.179 16.1445C12.0557 16.2887 11.8622 16.4436 11.621 16.5936C11.3862 16.7396 11.1442 16.8575 10.9568 16.9398C10.8645 16.9804 10.7886 17.0109 10.7376 17.0306C10.7122 17.0405 10.6933 17.0475 10.6818 17.0517L10.6708 17.0557L10.6704 17.0559L10.6698 17.0561L10.6704 17.0559L10.6708 17.0557C10.2102 17.2163 9.93267 17.6858 10.014 18.1667C10.0954 18.6478 10.5121 19 11 19H17C17.5523 19 18 18.5523 18 18C18 17.4477 17.5523 17 17 17H14.0116C14.1785 16.703 14.2979 16.3487 14.2979 15.9429C14.2979 15.5907 14.253 15.2786 14.1841 15H15.4681C16.0204 15 16.4681 14.5523 16.4681 14C16.4681 13.4477 16.0204 13 15.4681 13H13.369C13.3104 12.7903 13.2766 12.5627 13.2766 12.2857C13.2766 11.7768 13.4826 11.4963 13.7396 11.3108C14.0391 11.0946 14.4326 11 14.7021 11C15.2681 11 15.7283 11.1825 16.1801 11.8296C16.4962 12.2824 17.1196 12.3932 17.5724 12.0771C18.0253 11.7609 18.1361 11.1376 17.8199 10.6847C16.9951 9.50325 15.9234 9 14.7021 9ZM10.6708 17.0557C10.6709 17.0557 10.6711 17.0556 10.6712 17.0556L11 18C10.6712 17.0556 10.671 17.0557 10.6708 17.0557Z" fill="white"/>
</svg>
