<svg width="28" height="28" viewBox="0 0 28 28" fill="none" xmlns="http://www.w3.org/2000/svg">
<rect width="28" height="28" rx="5" fill="#5174D1"/>
<path fill-rule="evenodd" clip-rule="evenodd" d="M7.77778 6C7.3172 6 6.85567 6.15789 6.50678 6.50678C6.15789 6.85567 6 7.3172 6 7.77778V20.2222C6 20.6828 6.15789 21.1443 6.50678 21.4932C6.85567 21.8421 7.3172 22 7.77778 22H20.2222C20.6828 22 21.1443 21.8421 21.4932 21.4932C21.8421 21.1443 22 20.6828 22 20.2222V7.77778C22 7.3172 21.8421 6.85567 21.4932 6.50678C21.1443 6.15789 20.6828 6 20.2222 6H7.77778ZM8 20V8H20V20H8ZM17.64 9.86839C17.1196 9.37047 16.2 9.0074 15.2264 9.00218C14.4378 8.97342 13.3859 9.22836 12.5193 10.0169C12.0355 10.4571 11.6408 11.0345 11.3788 11.76H11C10.4477 11.76 10 12.2077 10 12.76C10 13.3123 10.4477 13.76 11 13.76H11.0284C11.0266 13.8313 11.0256 13.9035 11.0256 13.9765C11.0256 14.0623 11.0269 14.1467 11.0293 14.23H11.0282H11.0264H11.0246H11.0229H11.0213H11.0197H11.0181H11.0167H11.0153H11.0139H11.0126H11.0114H11.0103H11.0092H11.0081H11.0071H11.0062H11.0054H11.0046H11.0039H11.0032H11.0026H11.002H11.0016H11.0012H11.0008H11.0005H11.0003H11.0001H11L11 15.23V14.23C10.4477 14.23 10 14.6777 10 15.23C10 15.7823 10.4477 16.23 11 16.23V15.23L11 16.23H11.0001H11.0003H11.0005H11.0008H11.0012H11.0016H11.002H11.0026H11.0032H11.0039H11.0046H11.0054H11.0062H11.0071H11.0081H11.0092H11.0103H11.0114H11.0126H11.0139H11.0153H11.0167H11.0181H11.0197H11.0213H11.0229H11.0246H11.0264H11.0282H11.0301H11.032H11.034H11.0361H11.0382H11.0404H11.0426H11.0449H11.0473H11.0497H11.0522H11.0547H11.0573H11.0599H11.0626H11.0653H11.0682H11.071H11.0739H11.0769H11.08H11.083H11.0862H11.0894H11.0926H11.096H11.0993H11.1027H11.1062H11.1097H11.1133H11.117H11.1206H11.1244H11.1282H11.132H11.1359H11.1399H11.1439H11.148H11.1521H11.1562H11.1605H11.1647H11.1691H11.1734H11.1779H11.1823H11.1869H11.1914H11.1961H11.2008H11.2055H11.2103H11.2151H11.22H11.2249H11.2299H11.2349H11.24H11.2451H11.2503H11.2555H11.2608H11.2661H11.2715H11.2769H11.2824H11.2879H11.2934H11.299H11.3047H11.3104H11.3161H11.3219H11.3278H11.3337H11.3396H11.3456H11.3516H11.3577H11.3638H11.37H11.3762H11.3809C11.6498 16.9795 12.0555 17.5628 12.5426 18.0012C13.4063 18.7785 14.4162 19 15.0513 19C15.7687 19 16.3436 18.8418 16.8073 18.5923C17.2648 18.346 17.5611 18.0382 17.7448 17.8331C18.1133 17.4218 18.0786 16.7895 17.6673 16.421C17.2559 16.0525 16.6237 16.0873 16.2552 16.4986C16.1312 16.637 16.0172 16.7462 15.8594 16.8312C15.7077 16.9128 15.4621 17 15.0513 17C14.8146 17 14.3116 16.9026 13.8805 16.5146C13.7948 16.4374 13.7065 16.3439 13.6205 16.23H13.6257H13.6378H13.6498H13.6618H13.6739H13.6859H13.698H13.71H13.7221H13.7342H13.7462H13.7583H13.7704H13.7825H13.7946H13.8067H13.8188H13.8309H13.843H13.8551H13.8672H13.8793H13.8914H13.9035H13.9156H13.9277H13.9398H13.952H13.9641H13.9762H13.9883H14.0005H14.0126H14.0247H14.0368H14.049H14.0611H14.0732H14.0853H14.0975H14.1096H14.1217H14.1338H14.146H14.1581H14.1702H14.1823H14.1944H14.2065H14.2186H14.2308H14.2429H14.255H14.2671H14.2792H14.2912H14.3033H14.3154H14.3275H14.3396H14.3517H14.3637H14.3758H14.3878H14.3999H14.4119H14.424H14.436H14.4481H14.4601H14.4721H14.4841H14.4961H14.5081H14.5201H14.5321H14.5441H14.5561H14.5681H14.58H14.592H14.6039H14.6159H14.6278H14.6397H14.6516H14.6635H14.6754H14.6873H14.6992H14.7111H14.7229H14.7348H14.7466H14.7585H14.7703H14.7821H14.7939H14.8057H14.8174H14.8292H14.841H14.8527H14.8644H14.8762H14.8879H14.8996H14.9113H14.9229H14.9346H14.9462H14.9579H14.9695H14.9811H14.9927H15.0043H15.0159H15.0274H15.0389H15.0505H15.062H15.0735H15.085H15.0964H15.1079H15.1193H15.1307H15.1421H15.1535H15.1649H15.1763H15.1876H15.1989H15.2102H15.2215H15.2328H15.2441H15.2553H15.2665H15.2777H15.2889H15.3001H15.3112H15.3224H15.3335H15.3446H15.3557H15.3667H15.3777H15.3888H15.3998H15.4107H15.4217H15.4326H15.4436H15.4545H15.4653H15.4762H15.487H15.4979H15.5086H15.5194H15.5302H15.5409H15.5516H15.5623H15.573H15.5836H15.5942H15.6048H15.6154C16.1677 16.23 16.6154 15.7823 16.6154 15.23C16.6154 14.6777 16.1677 14.23 15.6154 14.23H15.6048H15.5942H15.5836H15.573H15.5623H15.5516H15.5409H15.5302H15.5194H15.5086H15.4979H15.487H15.4762H15.4653H15.4545H15.4436H15.4326H15.4217H15.4107H15.3998H15.3888H15.3777H15.3667H15.3557H15.3446H15.3335H15.3224H15.3112H15.3001H15.2889H15.2777H15.2665H15.2553H15.2441H15.2328H15.2215H15.2102H15.1989H15.1876H15.1763H15.1649H15.1535H15.1421H15.1307H15.1193H15.1079H15.0964H15.085H15.0735H15.062H15.0505H15.0389H15.0274H15.0159H15.0043H14.9927H14.9811H14.9695H14.9579H14.9462H14.9346H14.9229H14.9113H14.8996H14.8879H14.8762H14.8644H14.8527H14.841H14.8292H14.8174H14.8057H14.7939H14.7821H14.7703H14.7585H14.7466H14.7348H14.7229H14.7111H14.6992H14.6873H14.6754H14.6635H14.6516H14.6397H14.6278H14.6159H14.6039H14.592H14.58H14.5681H14.5561H14.5441H14.5321H14.5201H14.5081H14.4961H14.4841H14.4721H14.4601H14.4481H14.436H14.424H14.4119H14.3999H14.3878H14.3758H14.3637H14.3517H14.3396H14.3275H14.3154H14.3033H14.2912H14.2792H14.2671H14.255H14.2429H14.2308H14.2186H14.2065H14.1944H14.1823H14.1702H14.1581H14.146H14.1338H14.1217H14.1096H14.0975H14.0853H14.0732H14.0611H14.049H14.0368H14.0247H14.0126H14.0005H13.9883H13.9762H13.9641H13.952H13.9398H13.9277H13.9156H13.9035H13.8914H13.8793H13.8672H13.8551H13.843H13.8309H13.8188H13.8067H13.7946H13.7825H13.7704H13.7583H13.7462H13.7342H13.7221H13.71H13.698H13.6859H13.6739H13.6618H13.6498H13.6378H13.6257H13.6137H13.6017H13.5897H13.5777H13.5657H13.5537H13.5417H13.5298H13.5178H13.5058H13.4939H13.4819H13.47H13.4581H13.4462H13.4342H13.4223H13.4104H13.3986H13.3867H13.3748H13.363H13.3511H13.3393H13.3275H13.3156H13.3038H13.292H13.2803H13.2685H13.2567H13.245H13.2332H13.2215H13.2098H13.1981H13.1864H13.1747H13.163H13.1514H13.1397H13.1281H13.1165H13.1049H13.0933H13.0817H13.0702H13.0586H13.0471H13.0356H13.0304C13.0273 14.1481 13.0256 14.0636 13.0256 13.9765C13.0256 13.9025 13.0269 13.8303 13.0292 13.76H15.6154C16.1677 13.76 16.6154 13.3123 16.6154 12.76C16.6154 12.2077 16.1677 11.76 15.6154 11.76H13.6236C13.7028 11.6567 13.7846 11.5696 13.8653 11.4962C14.2982 11.1023 14.8244 10.9865 15.1617 11.0012C15.1762 11.0018 15.1906 11.0021 15.2051 11.0021C15.4646 11.0021 15.7073 11.0523 15.9059 11.1251C16.1151 11.2017 16.2283 11.2857 16.2574 11.3135C16.6564 11.6953 17.2894 11.6813 17.6713 11.2823C18.0531 10.8832 18.0391 10.2502 17.64 9.86839Z" fill="white"/>
</svg>
