<svg width="28" height="28" viewBox="0 0 28 28" fill="none" xmlns="http://www.w3.org/2000/svg">
<rect width="28" height="28" rx="5" fill="#5174D1"/>
<path fill-rule="evenodd" clip-rule="evenodd" d="M7.77778 6C7.3172 6 6.85567 6.15789 6.50678 6.50678C6.15789 6.85567 6 7.3172 6 7.77778V20.2222C6 20.6828 6.15789 21.1443 6.50678 21.4932C6.85567 21.8421 7.3172 22 7.77778 22H20.2222C20.6828 22 21.1443 21.8421 21.4932 21.4932C21.8421 21.1443 22 20.6828 22 20.2222V7.77778C22 7.3172 21.8421 6.85567 21.4932 6.50678C21.1443 6.15789 20.6828 6 20.2222 6H7.77778ZM8 20V8H14C13.4477 8 13 8.44772 13 9V9.37931C12.7778 9.44985 12.5481 9.55123 12.3275 9.69556C11.6564 10.1347 11.2 10.8884 11.2 11.9525C11.2 13.0262 11.8804 13.6976 12.4243 14.0564C12.9354 14.3937 13.4808 14.5633 13.6698 14.6221L13.6994 14.6313C13.8454 14.6773 14.233 14.8078 14.5684 15.0325C14.924 15.2708 15 15.458 15 15.581C15 16.2099 14.5139 16.6035 14 16.6035C13.5649 16.6035 13.1739 16.2584 12.8619 15.7282C12.5818 15.2522 11.9689 15.0934 11.4929 15.3735C11.0169 15.6535 10.8581 16.2665 11.1381 16.7425C11.4346 17.2463 12.0351 18.0666 13 18.4257V19C13 19.5523 13.4477 20 14 20H8ZM14 20C14.5523 20 15 19.5523 15 19V18.4287C16.0963 18.0392 17 17.019 17 15.581C17 14.459 16.2426 13.7469 15.6816 13.371C15.1004 12.9815 14.488 12.7828 14.3006 12.7238L14.2875 12.7197C14.1062 12.6626 13.7946 12.5645 13.5257 12.3871C13.2529 12.2071 13.2 12.0685 13.2 11.9525C13.2 11.7177 13.2465 11.5884 13.2817 11.5216C13.3161 11.4562 13.3613 11.4092 13.4225 11.3691C13.5698 11.2728 13.7987 11.2275 14 11.2275C14.121 11.2275 14.3296 11.2691 14.548 11.3798C14.7635 11.489 14.9162 11.6285 14.9968 11.7603C15.2849 12.2315 15.9004 12.38 16.3716 12.0919C16.8428 11.8039 16.9913 11.1883 16.7032 10.7171C16.3838 10.1946 15.9115 9.82853 15.452 9.59572C15.3064 9.52192 15.1546 9.45774 15 9.40455V9C15 8.44772 14.5523 8 14 8H20V20H14Z" fill="white"/>
</svg>
