<svg width="28" height="28" viewBox="0 0 28 28" fill="none" xmlns="http://www.w3.org/2000/svg">
<rect width="28" height="28" rx="5" fill="#5174D1"/>
<path fill-rule="evenodd" clip-rule="evenodd" d="M7.77778 6C7.3172 6 6.85567 6.15789 6.50678 6.50678C6.15789 6.85567 6 7.3172 6 7.77778V20.2222C6 20.6828 6.15789 21.1443 6.50678 21.4932C6.85567 21.8421 7.3172 22 7.77778 22H20.2222C20.6828 22 21.1443 21.8421 21.4932 21.4932C21.8421 21.1443 22 20.6828 22 20.2222V7.77778C22 7.3172 21.8421 6.85567 21.4932 6.50678C21.1443 6.15789 20.6828 6 20.2222 6H7.77778ZM8 20V8H20V20H8ZM12.2081 9.37361C11.8621 8.9431 11.2327 8.87454 10.8022 9.22049C10.3716 9.56644 10.3031 10.1959 10.649 10.6264L11.9135 12.2H11C10.4477 12.2 10 12.6477 10 13.2C10 13.7523 10.4477 14.2 11 14.2H13V14.6667H11C10.4477 14.6667 10 15.1144 10 15.6667C10 16.219 10.4477 16.6667 11 16.6667H13V18C13 18.5523 13.4477 19 14 19C14.5523 19 15 18.5523 15 18V16.6667H17C17.5523 16.6667 18 16.219 18 15.6667C18 15.1144 17.5523 14.6667 17 14.6667H15V14.2H17C17.5523 14.2 18 13.7523 18 13.2C18 12.6477 17.5523 12.2 17 12.2H16.0864L17.3509 10.6264C17.6969 10.1959 17.6283 9.56644 17.1978 9.22049C16.7673 8.87454 16.1378 8.9431 15.7919 9.37361L14 11.6036L12.2081 9.37361Z" fill="white"/>
</svg>
